<?xml version="1.0" encoding="UTF-8" standalone="no"?>
<svg
   xmlns:dc="http://purl.org/dc/elements/1.1/"
   xmlns:cc="http://creativecommons.org/ns#"
   xmlns:rdf="http://www.w3.org/1999/02/22-rdf-syntax-ns#"
   xmlns:svg="http://www.w3.org/2000/svg"
   xmlns="http://www.w3.org/2000/svg"
   xmlns:sodipodi="http://sodipodi.sourceforge.net/DTD/sodipodi-0.dtd"
   xmlns:inkscape="http://www.inkscape.org/namespaces/inkscape"
   width="760"
   height="780"
   viewBox="0 0 201.08333 206.37501"
   version="1.1"
   id="svg8"
   inkscape:version="1.0 (4035a4fb49, 2020-05-01)"
   sodipodi:docname="tobyface.svg">
  <defs
     id="defs2" />
  <sodipodi:namedview
     units="px"
     id="base"
     pagecolor="#ffffff"
     bordercolor="#666666"
     borderopacity="1.0"
     inkscape:pageopacity="0.0"
     inkscape:pageshadow="2"
     inkscape:zoom="0.24748738"
     inkscape:cx="-953.74417"
     inkscape:cy="421.61595"
     inkscape:document-units="mm"
     inkscape:current-layer="layer1"
     inkscape:document-rotation="0"
     showgrid="false"
     inkscape:window-width="1853"
     inkscape:window-height="1057"
     inkscape:window-x="-8"
     inkscape:window-y="-8"
     inkscape:window-maximized="1" />
  <metadata
     id="metadata5">
    <rdf:RDF>
      <cc:Work
         rdf:about="">
        <dc:format>image/svg+xml</dc:format>
        <dc:type
           rdf:resource="http://purl.org/dc/dcmitype/StillImage" />
        <dc:title></dc:title>
      </cc:Work>
    </rdf:RDF>
  </metadata>
  <g
     inkscape:label="Layer 1"
     inkscape:groupmode="layer"
     id="layer1">
    <path
       id="path850"
       style="fill:#000000;fill-opacity:1;stroke:none;stroke-width:0.264583px;stroke-linecap:butt;stroke-linejoin:miter;stroke-opacity:1"
       d="m 30.577374,0.39816038 c -0.125161,-0.006324 -0.250404,-0.005768 -0.375687,0.002646 C 26.192643,0.66807511 20.0452,4.9447127 20.0452,4.9447127 c 0,0 -2.138269,5.8798593 -2.405538,8.2852843 -0.26727,2.405425 -1.069185,18.174084 -1.069185,18.174084 l 2.940389,27.261324 v 8.552966 9.354468 L 8.2851945,90.470698 2.4054501,102.23071 l -1.87068666,7.48326 0.80150146,12.82919 1.3363525,13.36353 10.1564856,26.99421 15.234213,26.45937 57.195474,16.57108 52.11775,-3.47472 31.80529,-29.13259 7.2161,-4.54339 14.96704,-39.02139 -10.69082,-28.0634 c 0,0 -4.54349,-6.681462 -5.61257,-7.483271 -1.06908,-0.80181 4.27643,-7.483486 3.74189,-9.621637 -0.53453,-2.138103 -0.80211,-6.949138 0.8015,-9.087299 1.60356,-2.138149 8.55296,-13.096359 8.55296,-13.096357 l 5.87975,-15.768547 5.34541,-18.976102 -10.32444,16.1525 -0.18913,10.205064 -11.90625,21.544936 -2.07894,-1.322917 c 0.37797,-1.13393 -1.13379,-19.087721 -1.13379,-19.087721 l 7.55923,-10.20558 11.5285,-16.064134 6.54482,-1.222148 c 0,0 -1.1e-4,-2.13827 -3.74189,-2.405538 -3.74177,-0.267272 -10.95799,5.612577 -10.95799,5.612577 l -9.8888,8.285281 c 0,0 -11.22557,8.820134 -12.82919,8.820134 -1.60361,0 -14.4322,2.672705 -14.4322,2.672705 0,0 -6.94934,0.267062 -8.55296,-0.802019 -1.60361,-1.069078 -4.27623,-4.276225 -4.27623,-4.276225 0,0 -7.21652,-3.474717 -7.48378,-0.802018 -0.2204,2.204064 -5.47404,2.94462 -7.32927,3.139861 -0.63148,-0.105601 -2.34237,-0.31758 -6.30142,-0.734322 C 103.43312,46.104002 91.139051,43.69836 91.139051,43.69836 l -5.880261,-2.939872 -2.939873,-4.009057 -8.285282,1.336352 -7.216097,1.871202 -9.0873,-2.672704 L 45.970232,19.376847 38.219284,7.6173589 c 0,0 -3.761944,-7.02324016 -7.64191,-7.21919852 z m -0.268719,3.16259892 2.267564,5.2916666 -0.944647,14.7407021 3.023589,16.82016 8.126635,10.772471 -7.748362,2.456696 -6.992856,5.858557 -2.645833,3.590997 -6.425448,-27.403496 1.889807,-22.11183 2.834968,-6.6145833 z m 45.336251,42.3183447 0.372589,4.10001 -3.913458,3.540868 5.031735,2.236557 -9.690881,-0.559138 -8.200016,-0.931728 -6.522601,3.913457 -2.422591,5.218285 2.79518,3.354318 -5.404321,3.913455 -1.555978,1.477431 -1.976625,4.743894 3.953248,2.042253 3.755842,-1.251601 -1.779219,4.546491 0.658876,5.007446 0.197919,2.964678 -2.306318,-5.468401 -1.515671,-2.569868 -2.964677,0.658873 -0.660424,1.453142 2.888713,4.845698 4.65863,4.472596 -2.143022,2.795177 -7.361306,-5.776907 -1.676903,-3.727421 -3.261299,3.168283 v 4.100007 l 11.088214,4.193026 6.615615,1.677425 1.118277,2.79518 -5.217768,0.093 -11.088727,-1.49086 c 0,0 -5.870443,-2.608757 -5.870443,-2.236047 0,0.372729 -0.558816,2.515497 -0.745175,3.167767 -0.186362,0.65227 1.583883,3.44786 1.583883,3.44786 0,0 6.336265,1.02526 6.802168,1.02526 0.465904,0 8.852172,-1.21182 8.852172,-1.21182 l 6.709151,-0.65215 3.354318,1.86397 -0.931725,1.21129 -6.150014,-0.46612 -2.88871,0.37259 -2.329575,4.1 -3.447335,2.98173 -10.716141,-1.86345 -2.98173,0.093 -4.752165,8.01346 -4.379578,0.0935 -8.386051,0.37258 -4.6591471,-5.7769 V 110.919 l 9.5043291,-9.87692 8.759155,-7.268294 3.168282,-0.558622 -3.354835,-5.590874 6.895703,-6.895703 5.404321,-1.490866 2.981733,0.745691 1.02526,-4.00699 1.770433,-2.98173 -0.559139,-3.913457 2.795178,-1.30483 -1.770433,-0.652155 -2.236039,1.770435 -0.252698,3.774961 -1.581298,4.875673 -4.875157,0.108522 -5.311301,1.6769 -5.683893,5.311301 -3.820438,7.361309 -4.845699,6.056995 -6.4290648,3.261304 -0.5591389,-6.057 4.4725947,-7.826912 10.250021,-6.056995 c 0,0 6.988505,-8.386016 8.293034,-9.876917 1.30453,-1.490879 5.963459,-10.529588 5.963459,-10.529588 l 9.690881,-7.640878 15.840379,-3.726903 8.200014,-0.931727 z m 20.171378,2.764173 5.345416,1.469679 3.07319,2.672704 c 0,0 1.8713,9.087406 2.27221,10.156486 l 4.67724,4.944401 2.2717,-2.13837 3.34088,-6.815087 -0.93535,-6.681764 3.34088,0.267168 4.40955,3.073713 -2.80603,6.815089 -4.41006,16.036229 0.53433,20.045288 1.20303,10.556987 -6.4146,-3.60805 -3.87521,-0.40101 -6.81561,0.26768 2.13837,-7.750951 0.80151,-9.889318 -2.93988,-18.842259 -1.470191,-11.626165 z m -4.275707,5.566069 3.212725,3.96875 -0.188619,10.394198 -5.669939,10.205577 3.779613,9.260417 0.535884,1.497065 -3.674711,7.617108 -3.140892,-0.467672 -1.336352,-5.078243 -3.540869,-7.483263 -4.410067,-5.613096 -8.245493,-4.267957 -10.015924,-1.134297 -10.205579,2.645833 -1.512052,-1.70067 5.480802,-2.645834 4.346503,-2.268079 9.260417,1.890326 4.724778,-0.378272 -0.377756,-6.614584 -1.889808,-6.047692 4.913397,-0.377756 c 0,0 4.34702,7.55945 4.34702,8.504391 0,0.944941 1.700672,8.504391 1.700672,8.504391 l 5.10253,2.078942 3.024105,-8.882663 3.02359,-6.047174 -3.212725,-6.425964 z m 36.474773,5.480801 3.87419,10.96109 -0.0946,7.748362 1.8898,4.44159 4.15789,-2.551264 2.64583,-8.03207 c 0,0 0.66139,-3.780062 1.22835,-3.685561 0.56697,0.0945 5.76451,2.078943 5.76451,2.078943 l 0.75551,5.575368 -2.173,1.511536 2.74041,3.024105 c 0,0 4.72433,-2.25e-4 4.81882,0.377756 0.0945,0.377979 -1.13378,2.645834 -1.13378,2.645834 l -3.21272,1.228346 11.71711,-2.078423 2.26808,5.385715 -4.44159,1.03973 -8.31525,-2.551265 c 0,0 -7.3704,0.756028 -7.74837,0.756028 -0.37798,0 -10.58333,2.645833 -10.58333,2.645833 l -6.23683,7.370091 -3.02359,3.307299 c -0.47247,-0.56697 -2.45721,-8.504396 -2.45721,-8.504396 0,0 1.22886,-4.440859 1.22886,-4.818827 0,-0.377981 -1.32291,-8.882663 -1.32291,-8.882663 l 3.49591,-14.741218 z m 26.08058,6.047695 c 0,0 7.55909,2.834667 8.69301,2.456696 1.13393,-0.377978 7.74888,1.700673 7.74888,1.700673 l -3.78013,3.212722 4.11189,6.096269 0.046,-0.04857 1.32291,2.078943 -1.36891,-2.030368 -3.35586,3.542419 0.56689,5.480804 -2.4567,-4.157887 -4.34651,-5.858558 c 0,0 -5.45921,-7.785573 -7.86463,-9.121923 z m -57.077134,0.812353 3.207034,11.358996 0.80202,14.432193 -1.73736,7.750956 -5.078243,7.75095 -2.00401,-5.34542 c 0,0 2.805928,-5.880153 3.073197,-6.815603 0.267271,-0.93544 1.069186,-16.169555 1.069186,-16.169555 l -0.935344,-5.612577 z m -31.275093,11.377083 6.520016,1.701189 4.91391,3.685045 3.401859,6.14226 -0.189135,6.236314 -2.551266,2.362644 -5.00848,1.322917 -6.047174,-0.47284 h -0.09457 l -3.96875,-2.456696 -3.685561,-1.133782 -2.362131,-2.173509 -2.17351,-2.834971 -0.756026,-3.87418 0.850594,-3.96875 3.590996,-3.307292 z m 3.685563,2.645833 -2.457214,2.929536 -3.118157,4.724778 v 5.858555 l 1.954919,2.889232 0.955498,-0.180354 2.003496,-1.480529 2.739882,-4.724775 0.945163,-5.66942 -1.606621,-4.252455 z m 76.303864,9.402009 5.90559,3.1657 1.93735,4.488614 0.18913,5.055506 -1.55959,3.21273 -2.173,1.27537 -4.06332,0.80357 -2.83496,-0.0475 2.55126,-5.1971 0.18914,-6.094724 -2.17351,-3.685564 -1.74822,-1.511535 -2.12596,1.79524 -1.74822,5.244642 0.709,5.007971 1.36994,4.15788 0.89762,0.99219 -2.92902,0.4253 -6.04769,-2.22106 -3.63802,-2.55126 -0.18914,-7.417642 5.1971,-4.394047 5.57537,-2.409671 z m 18.28468,1.181325 3.87418,1.606618 -3.21272,2.456699 -2.17352,1.228349 2.36213,1.13378 3.40186,1.701188 4.44107,0.944651 2.74041,4.15789 -0.47233,2.92953 -6.80371,-2.55126 -4.06332,0.18862 -3.02359,-2.92903 -3.96875,2.4567 -1.60662,0.66146 1.41748,-2.83497 -0.37775,-1.98437 -0.8506,-2.740409 0.94517,-2.362129 1.13378,-3.212724 z m -102.14829,18.048515 11.972396,7.28276 a 2.7116603,2.6709761 2.9597783 0 0 -0.97255,-0.23254 2.7116603,2.6709761 2.9597783 0 0 -2.845822,2.52749 2.7116603,2.6709761 2.9597783 0 0 2.570385,2.80758 2.7116603,2.6709761 2.9597783 0 0 2.845821,-2.5275 2.7116603,2.6709761 2.9597783 0 0 -0.995288,-2.20813 l 2.96106,1.80092 a 2.6058766,2.5667795 0 0 0 -0.432014,1.41542 2.6058766,2.5667795 0 0 0 2.606043,2.56677 2.6058766,2.5667795 0 0 0 2.257742,-1.28571 l 2.710945,1.649 4.346506,-4.15789 6.614583,1.32292 3.779613,1.8898 -1.133779,2.26808 3.590989,8.12664 -1.32291,9.8273 -24.757662,6.80373 -10.755416,-3.35381 a 3.2816482,3.3198077 5.0132703 0 0 2.330606,-2.89284 3.2816482,3.3198077 5.0132703 0 0 -2.978629,-3.59358 3.2816482,3.3198077 5.0132703 0 0 -3.559474,3.01997 3.2816482,3.3198077 5.0132703 0 0 0.716238,2.37763 l -3.328998,-1.03818 -10.961603,-21.3558 z m 36.886636,2.51354 6.681764,0.93586 10.69082,1.60352 4.00906,3.47421 -1.73736,3.20755 -1.4702,-0.53485 0.13384,-2.53886 -3.34088,-1.06919 -2.40554,2.53887 -0.8015,5.34541 -2.27221,3.47472 -2.53886,2.40554 -1.33636,-2.93987 -1.20251,-4.81108 1.73685,-4.81108 -3.34088,-4.27622 -5.21157,0.66817 -1.336355,1.60352 -0.267165,-2.13785 z m 60.253174,0.0377 8.40982,1.60663 2.7404,4.44107 -5.57485,0.37775 -6.0477,-3.96875 0.37776,-1.98437 z m -92.734394,2.58228 a 2.782267,2.7405232 5.0132703 0 0 -2.768822,2.49803 2.782267,2.7405232 5.0132703 0 0 2.532144,2.97295 2.782267,2.7405232 5.0132703 0 0 3.011186,-2.48667 2.782267,2.7405232 5.0132703 0 0 -2.532145,-2.97346 2.782267,2.7405232 5.0132703 0 0 -0.242363,-0.0108 z m 88.009614,1.67018 4.91391,2.64583 7.74837,6.04718 3.0241,-1.13378 3.96875,-3.02359 1.32292,4.72478 -1.32292,3.96875 8.88215,3.02358 5.10253,-0.37775 -1.51154,4.72426 -10.9616,0.75602 -10.01645,-6.23631 -7.74836,-9.8273 z m -26.45833,0.18862 3.78013,2.83497 18.89859,-0.5669 3.21272,6.42545 -1.13378,18.70997 -14.55209,17.76481 -14.55208,-1.13378 -8.31577,-11.15022 -9.07128,-6.23683 1.51205,-7.74837 5.29167,-4.91391 3.21272,-5.85856 6.0477,-0.75602 3.40185,-1.51206 z m -85.063027,1.40146 3.875215,16.43672 -4.142383,3.20756 -0.53485,13.09584 6.681764,5.61309 18.976101,13.6307 23.386169,11.49232 29.265911,-1.06919 13.2302,-2.53886 6.42028,-5.89576 3.77962,-3.02411 -1.51154,3.21273 -13.63328,13.32425 -24.32151,6.68176 -20.312453,-1.60352 -19.777603,-9.35447 -10.289813,-6.94893 -12.161014,-18.57509 -7.884271,-10.82466 -4.54391,-2.80603 -10.957987,-14.69988 7.349939,-0.40101 7.884789,-6.94893 z m 21.6116,4.52221 a 2.782267,2.7405232 5.0132703 0 0 -2.768822,2.49803 2.782267,2.7405232 5.0132703 0 0 2.532145,2.97295 2.782267,2.7405232 5.0132703 0 0 3.011186,-2.48667 2.782267,2.7405232 5.0132703 0 0 -2.532145,-2.97346 2.782267,2.7405232 5.0132703 0 0 -0.242364,-0.0108 z m 6.731373,1.77715 a 2.7116603,2.6709761 2.9597783 0 0 -2.661337,2.53111 2.7116603,2.6709761 2.9597783 0 0 2.569868,2.80758 2.7116603,2.6709761 2.9597783 0 0 2.845822,-2.52749 2.7116603,2.6709761 2.9597783 0 0 -2.569869,-2.80758 2.7116603,2.6709761 2.9597783 0 0 -0.112654,-0.004 2.7116603,2.6709761 2.9597783 0 0 -0.07183,0 z m -64.157324,0.7829 2.4055379,1.33635 c 2.1381561,2.40543 20.8473071,24.5892 20.8473071,24.5892 l 5.612577,7.48326 11.225154,13.09636 5.879745,9.62163 -12.561509,-6.14743 -11.760004,-8.28528 -6.681763,-12.29434 -8.819617,-10.69082 z m 71.466439,0.23978 a 2.6058767,2.5667796 0 0 0 -2.577621,2.56676 2.6058767,2.5667796 0 0 0 2.606043,2.56677 2.6058767,2.5667796 0 0 0 2.605524,-2.56677 2.6058767,2.5667796 0 0 0 -2.605524,-2.56676 2.6058767,2.5667796 0 0 0 -0.02842,0 z m 54.705709,0.85266 a 2.6058766,2.5667795 37.5224 0 0 -2.00247,0.99374 2.6058766,2.5667795 37.5224 0 0 0.50333,3.62303 2.6058766,2.5667795 37.5224 0 0 3.63027,-0.44855 2.6058766,2.5667795 37.5224 0 0 -0.50333,-3.62304 2.6058766,2.5667795 37.5224 0 0 -1.6278,-0.54518 z m 6.12572,3.15691 a 2.7116606,2.6709761 34.56262 0 0 -2.16421,1.14618 2.7116606,2.6709761 34.56262 0 0 0.71778,3.73776 2.7116606,2.6709761 34.56262 0 0 3.74861,-0.66146 2.7116606,2.6709761 34.56262 0 0 -0.7183,-3.73775 2.7116606,2.6709761 34.56262 0 0 -1.54254,-0.48473 2.7116606,2.6709761 34.56262 0 0 -0.0413,0 z m -75.509605,2.09496 a 2.782267,2.7405232 5.0132703 0 0 -2.768822,2.49804 2.782267,2.7405232 5.0132703 0 0 2.532145,2.97295 2.782267,2.7405232 5.0132703 0 0 3.01067,-2.48667 2.782267,2.7405232 5.0132703 0 0 -2.532145,-2.97347 2.782267,2.7405232 5.0132703 0 0 -0.241848,-0.0108 z m 81.761415,0.30593 a 2.7822673,2.7405232 32.50913 0 0 -2.28771,1.25728 2.7822673,2.7405232 32.50913 0 0 0.87333,3.80649 2.7822673,2.7405232 32.50913 0 0 3.8194,-0.81597 2.7822673,2.7405232 32.50913 0 0 -0.87385,-3.80649 2.7822673,2.7405232 32.50913 0 0 -1.50636,-0.44131 2.7822673,2.7405232 32.50913 0 0 -0.0248,0 z m -15.99385,1.01596 a 2.6058767,2.5667796 37.5224 0 0 -2.00246,0.99425 2.6058767,2.5667796 37.5224 0 0 0.50332,3.62303 2.6058767,2.5667796 37.5224 0 0 3.62976,-0.44855 2.6058767,2.5667796 37.5224 0 0 -0.50333,-3.62303 2.6058767,2.5667796 37.5224 0 0 -1.62729,-0.5457 z m -58.709079,0.24598 a 2.7116603,2.6709761 2.9597783 0 0 -2.661338,2.53111 2.7116603,2.6709761 2.9597783 0 0 2.570387,2.80758 2.7116603,2.6709761 2.9597783 0 0 2.845821,-2.5275 2.7116603,2.6709761 2.9597783 0 0 -2.570387,-2.80758 2.7116603,2.6709761 2.9597783 0 0 -0.112654,-0.004 2.7116603,2.6709761 2.9597783 0 0 -0.07183,0 z m 7.753532,0.68781 a 2.6058767,2.5667794 0 0 0 -2.577621,2.56677 2.6058767,2.5667794 0 0 0 2.605524,2.56677 2.6058767,2.5667794 0 0 0 2.606043,-2.56677 2.6058767,2.5667794 0 0 0 -2.606043,-2.56677 2.6058767,2.5667794 0 0 0 -0.0279,0 z m 81.812577,1.55649 9.8888,7.48327 4.54391,1.06918 -5.61258,3.20756 -8.01811,4.54339 -5.6131,0.53433 3.47472,-6.94893 -0.80201,-6.68176 z m -24.51995,1.11931 a 2.7116606,2.6709761 34.56262 0 0 -2.16421,1.14567 2.7116606,2.6709761 34.56262 0 0 0.71778,3.73827 2.7116606,2.6709761 34.56262 0 0 3.7481,-0.66146 2.7116606,2.6709761 34.56262 0 0 -0.71779,-3.73775 2.7116606,2.6709761 34.56262 0 0 -1.54254,-0.48473 2.7116606,2.6709761 34.56262 0 0 -0.0413,0 z m 6.42338,2.70423 a 2.7822673,2.7405232 32.50913 0 0 -2.28772,1.25729 2.7822673,2.7405232 32.50913 0 0 0.87385,3.80597 2.7822673,2.7405232 32.50913 0 0 3.81889,-0.81546 2.7822673,2.7405232 32.50913 0 0 -0.87333,-3.80648 2.7822673,2.7405232 32.50913 0 0 -1.50637,-0.44132 2.7822673,2.7405232 32.50913 0 0 -0.0253,0 z m -17.9586,0.23564 a 2.6058767,2.5667796 37.5224 0 0 -2.00246,0.99426 2.6058767,2.5667796 37.5224 0 0 0.50333,3.62252 2.6058767,2.5667796 37.5224 0 0 3.63027,-0.44855 2.6058767,2.5667796 37.5224 0 0 -0.50333,-3.62252 2.6058767,2.5667796 37.5224 0 0 -1.62781,-0.54571 z m -78.870632,0.48421 5.879745,0.80202 7.216613,9.0873 13.630693,7.75043 6.80992,-0.94671 12.189952,-4.91391 7.748365,-1.41697 9.260414,0.75551 6.42545,5.00848 8.03207,8.03207 9.73274,1.41748 7.84345,-3.0241 6.52001,-8.50439 2.41122,0.3855 5.07773,3.20704 -9.62163,8.55297 -13.89787,10.95799 -14.16502,1.06918 -17.640267,2.40502 -13.363009,-3.4742 -9.889318,-6.68176 -15.501379,-6.4146 -14.699879,-13.89786 z m 25.94157,1.19373 a 3.1983688,3.2355596 2.9597783 0 0 -3.196188,3.0701 3.1983688,3.2355596 2.9597783 0 0 3.026688,3.39617 3.1983688,3.2355596 2.9597783 0 0 3.361552,-3.06596 3.1983688,3.2355596 2.9597783 0 0 -3.027206,-3.39618 3.1983688,3.2355596 2.9597783 0 0 -0.164846,-0.004 z m 8.135418,0.33848 a 3.0735989,3.1093388 0 0 0 -3.073712,3.10937 3.0735989,3.1093388 0 0 0 3.073712,3.10937 3.0735989,3.1093388 0 0 0 3.073199,-3.10937 3.0735989,3.1093388 0 0 0 -3.073199,-3.10937 z m 51.279044,2.12907 a 2.7116606,2.6709761 34.56262 0 0 -2.16421,1.14567 2.7116606,2.6709761 34.56262 0 0 0.71778,3.73775 2.7116606,2.6709761 34.56262 0 0 3.7481,-0.66094 2.7116606,2.6709761 34.56262 0 0 -0.71779,-3.73776 2.7116606,2.6709761 34.56262 0 0 -1.54254,-0.48472 2.7116606,2.6709761 34.56262 0 0 -0.0413,0 z m -12.15378,1.25367 a 3.0735989,3.1093388 37.5224 0 0 -2.42621,1.2237 3.0735989,3.1093388 37.5224 0 0 0.54415,4.33823 3.0735989,3.1093388 37.5224 0 0 4.33152,-0.59427 3.0735989,3.1093388 37.5224 0 0 -0.54415,-4.33773 3.0735989,3.1093388 37.5224 0 0 -1.90531,-0.62993 z m 63.10519,1.76682 -4.00906,7.21661 -8.82013,9.08678 -5.87975,8.01812 -2.13837,4.54391 -10.42313,1.33635 -2.93988,-1.60404 9.62164,-6.68124 4.54339,-9.88932 12.29434,-7.48326 z m -44.39522,0.0491 a 2.7822673,2.7405232 32.50913 0 0 -2.28772,1.25729 2.7822673,2.7405232 32.50913 0 0 0.87333,3.80648 2.7822673,2.7405232 32.50913 0 0 3.81889,-0.81597 2.7822673,2.7405232 32.50913 0 0 -0.87333,-3.80649 2.7822673,2.7405232 32.50913 0 0 -1.50637,-0.44131 2.7822673,2.7405232 32.50913 0 0 -0.0248,0 z m -12.10728,2.84375 a 3.1983688,3.2355599 34.56262 0 0 -2.64169,1.40922 3.1983688,3.2355599 34.56262 0 0 0.7984,4.4788 3.1983688,3.2355599 34.56262 0 0 4.46949,-0.84956 3.1983688,3.2355599 34.56262 0 0 -0.7984,-4.47932 3.1983688,3.2355599 34.56262 0 0 -1.81694,-0.55914 3.1983688,3.2355599 34.56262 0 0 -0.0109,0 z m 6.63681,3.42357 a 3.2816482,3.3198077 32.50913 0 0 -2.77193,1.54512 3.2816482,3.3198077 32.50913 0 0 0.98341,4.56355 3.2816482,3.3198077 32.50913 0 0 4.55166,-1.03611 3.2816482,3.3198077 32.50913 0 0 -0.9834,-4.56355 3.2816482,3.3198077 32.50913 0 0 -1.77974,-0.50901 z" />
  </g>
  <g
     inkscape:groupmode="layer"
     id="layer2"
     inkscape:label="Layer 2" />
</svg>
