<?xml version="1.0" encoding="UTF-8" standalone="no"?>
<svg
   xmlns:dc="http://purl.org/dc/elements/1.1/"
   xmlns:cc="http://creativecommons.org/ns#"
   xmlns:rdf="http://www.w3.org/1999/02/22-rdf-syntax-ns#"
   xmlns:svg="http://www.w3.org/2000/svg"
   xmlns="http://www.w3.org/2000/svg"
   xmlns:sodipodi="http://sodipodi.sourceforge.net/DTD/sodipodi-0.dtd"
   xmlns:inkscape="http://www.inkscape.org/namespaces/inkscape"
   width="1065"
   height="665"
   viewBox="0 0 281.78125 175.94792"
   version="1.1"
   id="svg8"
   inkscape:version="1.0 (4035a4fb49, 2020-05-01)"
   sodipodi:docname="elegoo-base.svg">
  <defs
     id="defs2" />
  <sodipodi:namedview
     id="base"
     pagecolor="#ffffff"
     bordercolor="#666666"
     borderopacity="1.0"
     inkscape:pageopacity="0.0"
     inkscape:pageshadow="2"
     inkscape:zoom="0.5"
     inkscape:cx="677.82534"
     inkscape:cy="276.86165"
     inkscape:document-units="mm"
     inkscape:current-layer="layer2"
     inkscape:document-rotation="0"
     showgrid="false"
     inkscape:window-width="1853"
     inkscape:window-height="1057"
     inkscape:window-x="-8"
     inkscape:window-y="-8"
     inkscape:window-maximized="1"
     units="px" />
  <metadata
     id="metadata5">
    <rdf:RDF>
      <cc:Work
         rdf:about="">
        <dc:format>image/svg+xml</dc:format>
        <dc:type
           rdf:resource="http://purl.org/dc/dcmitype/StillImage" />
        <dc:title />
      </cc:Work>
    </rdf:RDF>
  </metadata>
  <g
     inkscape:groupmode="layer"
     id="layer2"
     inkscape:label="Layer 2">
    <path
       id="path853"
       style="display:inline;fill:#a02c2c;stroke:none;stroke-width:0.264583px;stroke-linecap:butt;stroke-linejoin:miter;stroke-opacity:1"
       d="m 140.86454,1.2436011 c -3.0898,-0.06475 -5.27668,2.697509 -5.27668,2.697509 v 0.606163 c -0.01,0.01185 -0.0193,0.02167 -0.0289,0.03359 V 28.470887 H 46.520472 V 8.2493723 L 40.945102,4.2806222 C 2.7365612,32.521747 2.1877278,70.078713 2.2509978,75.141823 c 0,0 -0.25181,18.245691 0,27.008587 0.25179,8.76294 3.5845534,44.60747 38.5664542,70.46366 l 5.57486,-3.96875 v -20.22151 h 89.067428 v 24.52925 c 0,0 1.85476,2.33715 4.55941,2.65876 3.64809,0.86313 6.35878,-2.55385 6.35878,-2.55385 v -24.52978 h 89.06743 v 20.22203 l 5.57538,3.96875 c 35.46755,-26.21514 38.75019,-63.47757 38.85798,-70.56856 V 75.141823 C 279.60425,67.780763 275.24838,29.778767 240.8928,4.3855281 l -5.57537,3.9687502 V 28.575787 h -89.03865 v -0.1049 -23.9949269 c -0.01,-0.01193 -0.0193,-0.02172 -0.0289,-0.03359 v -0.396359 c 0,0 -1.51691,-1.9106009 -3.80649,-2.5150919 -0.54612,-0.1850371 -1.07501,-0.2767651 -1.57871,-0.2873191 z"
       sodipodi:nodetypes="scccccccccccccccccccccccccccccccss" />
  </g>
</svg>
